<?xml version="1.0" encoding="utf-8"?>
<!-- Generator: Adobe Illustrator 24.0.0, SVG Export Plug-In . SVG Version: 6.00 Build 0)  -->
<svg version="1.1" id="Layer_1" xmlns="http://www.w3.org/2000/svg" xmlns:xlink="http://www.w3.org/1999/xlink" x="0px" y="0px"
	 viewBox="0 0 26 26" style="enable-background:new 0 0 26 26;" xml:space="preserve">
<style type="text/css">
	.st0{fill:#FFFFFF;}
</style>
<g>
	<path class="st0" d="M5.7,17.5c-0.7,0.6-1.3,1.1-2,1.7c-0.1,0.1-0.1,0.1-0.2,0.1c-0.4,0-0.8,0.2-1.1,0.4c-0.1,0.1-0.2,0.1-0.3-0.1
		c-0.3-0.6-0.6-1.2-0.9-1.8c0-0.1,0-0.2,0-0.3c0.2-0.6,0.5-1.3,0.7-1.9c0-0.1,0-0.2,0.2-0.1C3.3,16.1,4.5,16.8,5.7,17.5z"/>
	<path class="st0" d="M9.6,1c0.1,0,0.1,0.1,0.2,0.1c0.7,0.6,1.3,1.1,2,1.7c0.1,0.1,0.1,0.2,0,0.2c-1.1,0.6-2.2,1.2-3.3,1.9
		C8.4,5,8.3,5,8.3,4.9C8,4,7.7,3.2,7.4,2.4C7.3,2.2,7.5,1.8,7.7,1.7c0.6-0.3,1.2-0.5,1.8-0.7C9.6,1.1,9.6,1,9.6,1z"/>
	<path class="st0" d="M25.1,16.7c0,0.1,0,0.1,0,0.2c-0.3,0.9-0.7,1.8-1.2,2.7c-0.1,0.2-0.1,0.2-0.3,0.1c-0.8-0.7-1.6-1.4-2.4-2.1
		c-0.1-0.1-0.1-0.1,0-0.2c1.1-0.6,2.2-1.2,3.3-1.9c0.1,0,0.2-0.1,0.2,0C24.8,15.9,24.9,16.3,25.1,16.7
		C25.1,16.7,25.1,16.7,25.1,16.7z"/>
	<path class="st0" d="M17.3,14.3c0,0.1,0,0.2-0.2,0.3c-0.7,0.4-1.5,0.8-2.2,1.3c-0.2,0.1-0.2,0.1-0.3-0.1c-0.1-0.2-0.1-0.4,0.1-0.6
		c0.6-0.8,1.2-1.6,1.8-2.4c0.1-0.1,0.1-0.2,0.2-0.2c0.1,0,0.2,0.1,0.3,0.3C17.1,13.3,17.2,13.7,17.3,14.3z"/>
	<path class="st0" d="M15.2,6.1c0.1-0.4,0.3-0.7,0.5-1.1c0.5-0.8,1.1-1.6,1.8-2.3c0.1-0.1,0.2-0.1,0.2,0c0.2,0.5,0.3,1,0.5,1.4
		c0,0.1,0,0.2-0.1,0.2C17.1,5,16.2,5.5,15.2,6.1z"/>
	<path class="st0" d="M19.9,11.7c0.5-0.8,1.1-1.5,1.6-2.3c0.1-0.1,0.1-0.1,0.2-0.1c1-0.2,1.9-0.4,2.9-0.6c0.1,0,0.2-0.1,0.2,0.1
		c0,0.1,0,0.1-0.1,0.2C23.1,9.9,21.5,10.8,19.9,11.7C19.9,11.7,19.9,11.7,19.9,11.7z"/>
	<path class="st0" d="M18.9,11.1c0,0.3,0,0.3-0.3,0.2c-1.4-0.8-2.8-1.6-4.2-2.4c0,0-0.1,0-0.1,0c-0.1,0-0.1-0.1-0.1-0.1
		c0-0.1,0.1,0,0.1,0c0.6,0.1,1.3,0.3,1.9,0.4c0.4,0.1,0.8,0.2,1.1,0.2c0.1,0,0.2,0.1,0.3,0.2c0.3,0.5,0.7,1,1.1,1.5
		C18.9,11,18.9,11.1,18.9,11.1z"/>
	<path class="st0" d="M9.8,14.7c0,0-0.1,0-0.1-0.1c-0.4-0.2-0.7-0.4-1.1-0.6c-0.2-0.1-0.1-0.1,0-0.3c0.9-0.8,1.8-1.6,2.7-2.4
		c0.1-0.1,0.1-0.1,0.2,0c0.1,0.1,0.1,0.1,0.1,0.3c-0.4,0.7-0.8,1.4-1.2,2.1c-0.2,0.3-0.3,0.5-0.5,0.8C9.9,14.6,9.8,14.6,9.8,14.7z"
		/>
	<path class="st0" d="M17.4,9.1c-1.1-0.2-2.1-0.4-3.1-0.6c-0.1,0-0.2,0-0.3-0.1c-0.2-0.1-0.3-0.3-0.2-0.5c0.2-0.4,0.5-0.7,0.7-1.1
		c0.1-0.1,0.2-0.2,0.3-0.1C15.6,7.5,16.4,8.3,17.4,9.1C17.3,9,17.3,9,17.4,9.1z"/>
	<path class="st0" d="M21.6,9.1c-0.1-0.1-0.3-0.2-0.4-0.4c-0.1-0.1,0.1-0.2,0.1-0.2c0.7-0.8,1.2-1.7,1.7-2.7c0.1-0.2,0.1-0.2,0.3,0
		c0.3,0.3,0.5,0.7,0.7,1.1C24,7,24,7.1,23.9,7.1c-0.7,0.6-1.5,1.3-2.2,1.9C21.6,9.1,21.6,9.1,21.6,9.1z"/>
	<path class="st0" d="M8,5.1c0,0.1-0.1,0.1-0.1,0.1C7.7,5.4,7.4,5.5,7.1,5.7c-0.1,0-0.2,0.1-0.2,0C6.6,5.5,6.4,5.4,6.1,5.2
		C6,5.2,6,5.1,6,5c0.3-0.8,0.6-1.7,0.9-2.5c0,0,0-0.1,0.1-0.1c0.1,0,0.1,0.1,0.1,0.1C7.4,3.4,7.7,4.2,8,5.1C8,5.1,8,5.1,8,5.1z"/>
	<path class="st0" d="M12.5,9.5c-0.3,0.4-0.5,0.7-0.8,1.1c-0.2,0.4-0.5,0.5-1,0.6c-0.9,0.2-1.9,0.4-2.8,0.5c-0.1,0-0.1,0-0.2,0
		c0.5-0.3,0.9-0.5,1.4-0.8c0.7-0.4,1.4-0.8,2-1.2C11.5,9.5,12,9.5,12.5,9.5z"/>
	<path class="st0" d="M18.8,11.8c-0.4-0.1-0.9-0.2-1.3-0.3c-0.1,0-0.1-0.2-0.2-0.3c-0.1-0.3-0.1-0.4-0.4-0.1
		c-0.4,0.3-0.7,0.2-1.1,0.2c-0.4-0.1-0.6-0.2-0.8-0.5c-0.2-0.4-0.5-0.7-0.8-1.1c0,0-0.1-0.1-0.1-0.1c-0.1-0.1,0-0.3,0.1-0.4
		c0.1-0.1,0.2,0,0.2,0.1c1.4,0.8,2.8,1.6,4.2,2.4C18.7,11.6,18.8,11.6,18.8,11.8z"/>
	<path class="st0" d="M19.6,1.1c0,0.8,0,1.6,0,2.4c0,0.1,0,0.1-0.1,0.2c-0.2,0.1-0.5,0.3-0.7,0.4c-0.1,0.1-0.2,0.1-0.2-0.1
		c-0.2-0.5-0.4-1.1-0.6-1.6c0-0.1,0-0.2,0-0.2C18.4,1.8,19,1.4,19.6,1.1z"/>
	<path class="st0" d="M12.9,12.7c0,0,0,0.1-0.1,0.1c-0.5,0.8-1,1.7-1.4,2.5c-0.1,0.1-0.1,0.2-0.3,0.1c-0.2-0.1-0.4-0.2-0.6-0.4
		c-0.1-0.1-0.1-0.1-0.1-0.2c0.6-0.9,1.2-1.7,1.8-2.6c0.1-0.1,0.1-0.1,0.2,0c0.1,0.1,0.3,0.2,0.4,0.3C12.8,12.6,12.9,12.6,12.9,12.7z
		"/>
	<path class="st0" d="M6.7,2.3C6.4,3.2,6.1,4,5.7,4.9C5.7,5,5.7,5,5.6,4.9C5.2,4.7,4.8,4.5,4.3,4.2c-0.1-0.1-0.1-0.1,0-0.2
		C5,3.4,5.8,2.8,6.7,2.3z"/>
	<path class="st0" d="M22,9c0.5-0.4,0.9-0.8,1.4-1.2c0.2-0.2,0.4-0.3,0.6-0.5c0.1-0.1,0.2-0.1,0.2,0c0.2,0.4,0.3,0.7,0.5,1.1
		c0,0.1,0,0.1-0.1,0.2C23.7,8.7,22.8,8.9,22,9C22,9.1,22,9.1,22,9z"/>
	<path class="st0" d="M19.6,11.7c0.1-0.4,0.2-0.8,0.1-1.2c0-0.4,0.1-0.6,0.4-0.8c0.2-0.2,0.5-0.4,0.7-0.7c0.1-0.1,0.2-0.1,0.3,0
		c0.3,0.3,0.4,0.3,0.1,0.7c-0.5,0.6-0.9,1.3-1.4,1.9C19.8,11.6,19.7,11.7,19.6,11.7z"/>
	<path class="st0" d="M13.8,12.4c0-1,0.1-1.8,0.3-2.7c0.4,0.5,0.7,1,1,1.4c0,0,0,0.1,0,0.1C14.6,11.6,14.2,11.9,13.8,12.4z"/>
	<path class="st0" d="M13.6,13.8c0.1,0.3,0.2,0.5,0.3,0.8c0,0.1,0,0.2,0,0.2c-0.3,0.5-0.6,0.9-0.9,1.4c-0.1,0.1-0.1,0.1-0.3,0.1
		c0,0,0,0,0,0c-0.4-0.3-0.4-0.1-0.2-0.6c0.1-0.3,0.2-0.6,0.3-0.9C13,14.5,13.3,14.2,13.6,13.8z"/>
	<path class="st0" d="M20.3,19.5c0.7,0.1,1.4,0.3,2.1,0.4c0.3,0.1,0.6,0.1,0.9,0.2c0.2,0,0.2,0.1,0.1,0.2c-0.1,0.2-0.3,0.4-0.4,0.6
		c-0.1,0.1-0.1,0.1-0.2,0.1C21.9,20.5,21.1,20.1,20.3,19.5C20.3,19.6,20.3,19.6,20.3,19.5z"/>
	<path class="st0" d="M1,17.2c-0.2-0.5-0.3-1-0.4-1.5c0-0.2-0.1-0.5-0.1-0.7c0-0.1,0-0.2,0.1-0.2c0.1,0,0.1,0,0.2,0
		c0.3,0.2,0.5,0.3,0.8,0.4c0.1,0,0.1,0.1,0.1,0.2C1.5,15.9,1.3,16.5,1,17.2z"/>
	<path class="st0" d="M10.4,17.1c-0.2-0.4-0.5-0.7-0.7-1c0-0.1,0-0.1,0-0.2c0.1-0.2,0.3-0.4,0.4-0.6c0.1-0.1,0.1-0.1,0.2-0.1
		c0.2,0.1,0.5,0.3,0.7,0.4c0.1,0,0.1,0.1,0.1,0.2C10.9,16.2,10.6,16.6,10.4,17.1z"/>
	<path class="st0" d="M17.6,11.7c0.4,0.1,0.7,0.1,1.1,0.2c0.1,0,0.1,0.1,0,0.2c-0.1,0.5-0.3,0.9-0.5,1.3c0,0.1-0.1,0.1-0.2,0
		c-0.1-0.1-0.1-0.1-0.1-0.2c-0.1-0.5-0.3-1-0.4-1.4C17.5,11.8,17.5,11.7,17.6,11.7z"/>
	<path class="st0" d="M14.1,14.4c-0.1-0.3-0.2-0.5-0.3-0.8c0-0.2,0.1-0.3,0.3-0.4c0.3-0.1,0.6-0.2,0.9-0.3
		C14.7,13.4,14.4,13.9,14.1,14.4z"/>
	<path class="st0" d="M15.7,11.7c-0.5,0.3-1.1,0.5-1.6,0.6c0.4-0.3,0.7-0.7,1.1-1c0.1-0.1,0.1,0,0.1,0
		C15.5,11.4,15.6,11.6,15.7,11.7z"/>
	<path class="st0" d="M12,8c0.4-0.3,0.8-0.5,1.2-0.8c0,0.2,0,0.4,0,0.6c0,0.1-0.4,0.3-0.5,0.3C12.5,8.2,12.3,8.1,12,8z"/>
	<path class="st0" d="M0.6,11c0.1,0.2,0,0.4,0,0.6c0,0.9,0,1.8,0,2.8c0,0.1,0,0.2-0.1,0.3C0.3,13.4,0.4,12.2,0.6,11z"/>
	<path class="st0" d="M11.2,8.8c0.2-0.2,0.4-0.4,0.5-0.5c0,0,0.1-0.1,0.2,0c0.3,0.1,0.6,0.1,0.9,0.2c0.1,0,0.1,0.1,0,0.2
		c-0.1,0.1-0.2,0.1-0.3,0.1C12.1,8.7,11.7,8.7,11.2,8.8z"/>
	<path class="st0" d="M9.3,15.4c-0.3-0.4-0.5-0.8-0.8-1.2c0,0,0,0,0,0c0.3,0.2,0.7,0.4,1,0.6c0.1,0,0.1,0.1,0,0.2
		C9.6,15.1,9.5,15.3,9.3,15.4z"/>
	<path class="st0" d="M16.7,25.2c0.2-0.3,0.4-0.6,0.6-0.9c0.1-0.1,0.2,0,0.3,0c0,0,0,0,0,0.1c0.2,0.5,0.2,0.5-0.3,0.6
		C17.1,25.1,17,25.2,16.7,25.2C16.8,25.2,16.7,25.2,16.7,25.2z"/>
	<path class="st0" d="M12.8,9.5c-0.3,0.6-0.7,1.2-1,1.7c0,0.1-0.1,0.1-0.1,0c-0.1-0.1-0.2-0.1-0.1-0.2c0.3-0.3,0.5-0.7,0.7-1
		c0.1-0.1,0.2-0.3,0.3-0.4C12.7,9.6,12.7,9.5,12.8,9.5z"/>
	<path class="st0" d="M14.2,6.8C14,7.2,13.7,7.6,13.5,8c0,0,0,0-0.1,0c0-0.2,0-0.5,0-0.7c0,0,0-0.1,0.1-0.1
		C13.7,7,13.9,6.9,14.2,6.8z"/>
	<path class="st0" d="M25.5,15c0,0.4-0.1,0.8-0.2,1.2c-0.1-0.3-0.2-0.6-0.3-0.8c0-0.1,0-0.1,0.1-0.2C25.2,15.1,25.3,15.1,25.5,15z"
		/>
	<path class="st0" d="M12.9,12.4c-0.5-0.4-0.5-0.4-0.2-0.8c0.1-0.1,0.1-0.2,0.2-0.3C12.9,11.6,12.9,12,12.9,12.4z"/>
	<path class="st0" d="M6.3,19.6c-0.2,0.1-0.5,0.3-0.7,0.4c-0.2,0.1-0.2-0.1-0.4-0.2C5.7,19.7,6,19.6,6.3,19.6
		C6.3,19.6,6.3,19.6,6.3,19.6z"/>
	<path class="st0" d="M12.7,22.7c-0.3-0.1-0.6-0.1-0.8-0.2c0,0-0.1,0-0.1-0.1c0-0.1,0.1-0.2,0.1-0.3c0-0.1,0.1,0,0.1,0
		C12.2,22.4,12.4,22.6,12.7,22.7C12.7,22.7,12.7,22.7,12.7,22.7z"/>
	<path class="st0" d="M13.7,16.4c0.2-0.2,0.4-0.5,0.6-0.7c0.2,0.4,0.2,0.4-0.1,0.5C14,16.3,13.8,16.4,13.7,16.4
		C13.7,16.5,13.7,16.4,13.7,16.4z"/>
	<path class="st0" d="M12.7,0.9c-0.4-0.1-0.7-0.1-1-0.2C12.1,0.6,12.4,0.6,12.7,0.9z"/>
	<path class="st0" d="M16.2,11.4c-0.3,0.3-0.4,0.1-0.5-0.1C15.8,11.4,16,11.4,16.2,11.4z"/>
	<path class="st0" d="M23.9,12.3C23.9,12.3,23.9,12.3,23.9,12.3c0.1,0,0.1-0.1,0.2-0.1c0.3-0.6,0.6-1.3,0.9-1.9
		c0.2-0.3,0.2-0.6,0.1-1c-0.1-0.2-0.1-0.2-0.3-0.1c-1.4,0.8-2.7,1.6-4.1,2.3c-0.2,0.1-0.4,0.3-0.7,0.4c1,0.2,2,0.4,3,0.6
		c0.2,0,0.3,0.1,0.5,0.1C23.5,12.4,23.6,12.3,23.9,12.3z"/>
	<path class="st0" d="M25.3,10.2c-0.4,0.7-0.7,1.4-1,2.1c0,0.1,0,0.1,0,0.1c0.1,0.1,0.2,0.3,0.2,0.4c0,0.2-0.1,0.3-0.2,0.4
		c0,0,0,0.1,0,0.1c0.2,0.4,0.3,0.9,0.5,1.3c0.1,0.4,0.1,0.4,0.5,0.2c0.3-0.1,0.4-0.3,0.4-0.6c0-0.3,0-0.6,0-0.9
		C25.6,12.4,25.5,11.3,25.3,10.2z"/>
	<path class="st0" d="M23.6,13.4C23.6,13.4,23.6,13.4,23.6,13.4c-0.2,0.3-0.3,0.5-0.5,0.7c-0.6,1-1.3,2-1.9,3c0,0,0,0,0,0
		c1.1-0.6,2.2-1.2,3.2-1.8c0.1,0,0.1-0.1,0.1-0.2c-0.2-0.6-0.4-1.1-0.6-1.7c0,0,0,0,0,0C23.8,13.4,23.7,13.4,23.6,13.4z"/>
	<path class="st0" d="M19.5,20c-0.5,1.1-1,2.2-1.6,3.3c0,0.1,0,0.2,0,0.2c0.1,0.1,0.1,0.3,0.1,0.4c-0.2,0.2-0.1,0.4,0,0.6
		c0,0.1,0.1,0.2,0.2,0.1c0.4-0.2,0.8-0.4,1.2-0.6c0.1-0.1,0.2-0.2,0.2-0.3c0-0.6,0-1.2,0-1.8C19.6,21.3,19.6,20.6,19.5,20
		C19.5,20,19.5,20,19.5,20C19.5,20,19.5,20,19.5,20z"/>
	<path class="st0" d="M23.6,20c0-0.1,0-0.1,0-0.1c-0.9-0.7-1.7-1.5-2.6-2.2c-0.1-0.1-0.1,0-0.2,0.1c-0.2,0.4-0.5,0.8-0.7,1.1
		c0,0,0,0,0,0.1c0.1,0.1,0.2,0.2,0.2,0.4c0.9,0.2,1.8,0.4,2.6,0.5C23.1,19.9,23.4,20,23.6,20z"/>
	<path class="st0" d="M19.7,23.8c0.5-0.3,0.9-0.6,1.3-1c0.1-0.1,0-0.2,0-0.3c-0.2-0.5-0.4-0.9-0.7-1.4c-0.2-0.4-0.4-0.8-0.6-1.2
		c0,0,0,0-0.1,0C19.7,21.3,19.7,22.5,19.7,23.8z"/>
	<path class="st0" d="M19.9,18.7c0.7-1.1,1.4-2.1,2.1-3.2c0.5-0.7,0.9-1.5,1.4-2.2c0,0,0,0,0,0c-0.1-0.1-0.1-0.2-0.1-0.4
		c0,0,0,0,0,0c0,0,0,0,0,0c-1.1-0.2-2.2-0.4-3.2-0.6c-0.3-0.1-0.3-0.1-0.3,0.2c0,2.1,0,4.1,0,6.2c0,0.1,0,0.1,0,0.2c0,0,0.1,0,0.1,0
		C19.9,18.8,19.9,18.7,19.9,18.7z"/>
	<path class="st0" d="M22.6,21.1c-0.8-0.4-1.6-0.9-2.4-1.4c0,0,0,0,0,0c0,0.1-0.1,0.1-0.2,0.2c0,0,0,0,0,0c0.4,0.9,0.8,1.7,1.3,2.6
		c0.1,0.1,0.1,0.1,0.2,0c0.4-0.4,0.8-0.8,1.2-1.2C22.7,21.2,22.7,21.2,22.6,21.1z"/>
	<path class="st0" d="M15.7,18c0,0,0-0.1,0.1-0.1c0.4-0.7,0.9-1.4,1.3-2c0.3-0.4,0.3-0.7,0.2-1.2c0,0-0.1,0-0.1,0
		c-0.8,0.4-1.6,0.9-2.4,1.3c-0.1,0.1-0.1,0.2-0.1,0.3c0.2,0.5,0.4,1,0.6,1.6c0,0,0,0.1,0,0.1c0,0,0,0,0,0C15.5,17.9,15.6,18,15.7,18
		z"/>
	<path class="st0" d="M19.6,12.4C19.5,12.4,19.5,12.4,19.6,12.4c-0.4,1.4-1.3,2.6-2.1,3.8c-0.1-0.2-0.1-0.3-0.1-0.5
		c-0.5,0.8-1,1.6-1.5,2.4c0,0,0,0,0,0c0.1,0.1,0.1,0.2,0.1,0.3c0,0,0,0,0,0c0,0,0.1,0,0.1,0c1,0.2,2.1,0.4,3.1,0.6c0,0,0,0,0,0
		c0.1-0.2,0.2-0.3,0.4-0.3c0,0,0-0.1,0-0.1c0-2,0-4.1,0-6.1C19.6,12.6,19.6,12.5,19.6,12.4z"/>
	<path class="st0" d="M13.5,23.4c0,0,0,0.1,0,0.1c0,0.3,0,0.7,0,1c0,0.3,0,0.6,0,1c0,0.2,0.1,0.2,0.2,0.2c0.9,0,1.7-0.2,2.6-0.4
		c0.1,0,0.2-0.1,0.3-0.2c0.2-0.3,0.4-0.7,0.6-1c0.1-0.2,0-0.4-0.2-0.4c-1-0.2-2-0.4-3-0.6c0,0-0.1,0-0.1,0
		C13.8,23.3,13.6,23.4,13.5,23.4z"/>
	<path class="st0" d="M13,22.4C13,22.4,13,22.4,13,22.4c-0.3-0.6-0.6-1.2-0.9-1.8c-0.2-0.4-0.4-0.8-0.6-1.2
		c-0.2,0.1-0.2,0.2-0.1,0.4c0.5,0.6,0.7,1.3,0.5,2c0,0.2,0,0.3,0.2,0.3c0.2,0.1,0.5,0.3,0.7,0.4c0,0,0,0,0,0
		C12.9,22.5,12.9,22.4,13,22.4z"/>
	<path class="st0" d="M12.8,23.9c0,0,0,0.1,0,0.1c0.2,0.5,0.2,1,0.1,1.6c0,0,0,0.1,0,0.1c0.1,0,0.2,0,0.3,0c0.1,0,0.1-0.1,0.1-0.2
		c0-0.6,0-1.1,0-1.7c0-0.1,0-0.3,0-0.4c0,0-0.1,0-0.1,0C13,23.6,12.9,23.8,12.8,23.9z"/>
	<path class="st0" d="M12.8,23c-0.4-0.1-0.8-0.2-1.2-0.2c0,0,0,0,0,0.1c0.5,0.2,0.8,0.6,1.1,1c0.1-0.1,0.1-0.1,0.1-0.2
		c0.1-0.1,0.1-0.2,0.2-0.2c0,0,0,0,0-0.1C12.9,23.2,12.8,23.1,12.8,23z"/>
	<path class="st0" d="M19.2,19.7c0,0-0.1,0-0.1,0.1c-0.5,0.3-0.9,0.5-1.3,0.8c-1.3,0.7-2.5,1.5-3.8,2.2c0,0,0,0,0,0c0,0,0,0.1,0,0.1
		c0,0,0,0.1,0,0.1c0,0,0,0,0.1,0c0.4,0.1,0.7,0.1,1.1,0.2c0.7,0.1,1.3,0.3,2,0.4c0.1,0,0.2-0.2,0.4-0.2c0.1,0,0.2-0.1,0.2-0.2
		c0.5-1.1,1.1-2.2,1.6-3.3c0,0,0-0.1,0-0.1C19.3,19.8,19.2,19.8,19.2,19.7z"/>
	<path class="st0" d="M15.1,19c0-0.1,0-0.1,0-0.1c-0.1-0.1-0.2-0.2-0.2-0.4c0-0.2,0.1-0.3,0.2-0.4c0,0,0,0,0,0
		c-0.2-0.6-0.4-1.2-0.6-1.8c-0.3,0.2-0.5,0.3-0.8,0.4c-0.2,0.1-0.2,0.2-0.2,0.4c0,1.7,0,3.4,0,5.1c0,0,0,0.1,0,0.1c0,0,0.1,0,0.1,0
		C14,21.2,14.5,20.1,15.1,19z"/>
	<path class="st0" d="M13.8,22.6C13.8,22.6,13.8,22.5,13.8,22.6c1.2-0.7,2.3-1.3,3.5-2c0.6-0.3,1.2-0.7,1.7-1c0,0,0,0,0.1,0
		c0,0,0-0.1,0-0.1c0,0,0-0.1,0-0.1c0,0-0.1,0-0.1,0c-0.3-0.1-0.5-0.1-0.8-0.2c-0.8-0.1-1.5-0.3-2.3-0.4c0,0,0,0,0,0
		c-0.1,0.2-0.3,0.3-0.4,0.3c0,0,0,0,0,0c-0.1,0-0.1,0.1-0.1,0.2c-0.5,1.1-1,2.2-1.6,3.2c0,0,0,0,0,0C13.7,22.4,13.8,22.5,13.8,22.6z
		"/>
	<path class="st0" d="M13.2,17c-0.5,0.7-1,1.3-1.5,2c-0.1,0.1,0,0.2,0,0.3c0.2,0.4,0.3,0.7,0.5,1.1c0.3,0.7,0.6,1.3,0.9,2
		c0,0,0,0,0.1,0C13.2,20.6,13.2,18.8,13.2,17z"/>
	<path class="st0" d="M7.4,12.5c0,0,0,0.1,0.1,0.1c0.2,0.3,0.4,0.7,0.6,1c0.1,0.2,0.2,0.2,0.3,0c0.5-0.5,1-0.9,1.5-1.3
		c0.4-0.3,0.7-0.6,1.1-1c-0.1,0-0.1,0-0.2,0c-1.1,0.2-2.1,0.4-3.2,0.6c0,0-0.1,0-0.1,0C7.6,12.2,7.5,12.3,7.4,12.5z"/>
	<path class="st0" d="M2.2,12.9c0-0.2,0.1-0.3,0.2-0.4c0-0.1,0-0.1,0-0.2c-0.3-0.6-0.6-1.2-0.9-1.8C1.4,10.1,1.2,9.8,1,9.3
		c-0.1,0.4-0.2,0.7-0.2,1c0,1.2,0,2.3,0,3.5c0,0.5,0.1,0.8,0.6,1c0.1,0,0.2,0.1,0.3,0.1c0.2,0.1,0.2,0.1,0.3-0.1
		c0.2-0.5,0.3-1,0.5-1.4c0,0,0-0.1,0-0.1C2.3,13.2,2.2,13.1,2.2,12.9z"/>
	<path class="st0" d="M2.7,13.5C2.7,13.5,2.7,13.5,2.7,13.5c-0.2,0.5-0.4,1-0.6,1.6c-0.1,0.2,0,0.2,0.1,0.3c0.5,0.3,1,0.5,1.4,0.8
		c0.6,0.3,1.2,0.6,1.7,1c0,0,0,0,0,0c-0.8-1.2-1.6-2.5-2.4-3.7C3,13.5,2.9,13.5,2.7,13.5C2.8,13.5,2.7,13.5,2.7,13.5z"/>
	<path class="st0" d="M3.3,12.6C3.3,12.6,3.3,12.6,3.3,12.6c1.1-0.2,2.1-0.4,3.1-0.6c0,0,0,0,0-0.1c0-0.1,0-0.1,0-0.2
		c-0.5-0.3-1.1-0.6-1.6-0.9c-1.1-0.7-2.3-1.3-3.4-2c-0.1,0-0.1-0.1-0.2,0C1.1,8.9,1.1,9,1.2,9.1c0,0,0,0,0,0.1
		c0.4,0.9,0.8,1.7,1.3,2.6c0.1,0.2,0.1,0.4,0.3,0.6c0,0,0,0,0,0C3,12.4,3.2,12.5,3.3,12.6z"/>
	<path class="st0" d="M8.6,7.6c0-0.2,0.1-0.3,0.2-0.4c0,0,0,0,0-0.1C8.6,6.5,8.4,6,8.2,5.5c0-0.1-0.1-0.1-0.2-0.1
		C7.7,5.6,7.5,5.7,7.2,5.8C7.1,5.9,7.1,5.9,7.1,6c0,1.8,0,3.6,0,5.4c0,0,0,0,0.1,0c0.5-1.1,1.1-2.2,1.6-3.4c0,0,0,0,0-0.1
		C8.6,7.9,8.6,7.7,8.6,7.6z"/>
	<path class="st0" d="M9.4,7.1C9.4,7,9.4,7,9.4,7.1c0.3-0.5,0.6-0.9,0.8-1.3c0.5-0.8,1-1.6,1.6-2.4c0,0-0.1,0-0.1,0
		c-1.1,0.6-2.1,1.2-3.2,1.8C8.4,5.2,8.4,5.2,8.5,5.3C8.7,5.9,8.9,6.4,9.1,7c0,0,0,0,0,0c0,0,0,0,0,0C9.2,7,9.3,7,9.4,7.1z"/>
	<path class="st0" d="M9.1,8.1c0,0-0.1,0-0.1,0c0,0,0,0.1-0.1,0.1C8.6,9,8.2,9.8,7.8,10.7c-0.1,0.3-0.3,0.6-0.4,0.8
		c0.1,0,0.1,0.1,0.1,0.1c1.1-0.6,2.2-1.3,3.3-1.9c0,0,0,0,0-0.1C10.2,9.8,9.7,9.9,9.1,10c0,0,0,0,0-0.1c0.6-0.6,1.1-1.3,1.7-2
		C10.4,7.9,10,7.9,9.7,7.8c0,0,0,0-0.1,0C9.5,8,9.3,8.1,9.1,8.1z"/>
	<path class="st0" d="M4.5,7.2C4.1,6.6,3.7,6,3.3,5.3c-0.1-0.1-0.1-0.1-0.2,0C3,5.6,2.8,5.8,2.6,6C2.2,6.7,1.8,7.4,1.5,8.1
		c0,0,0,0,0.1,0C2.5,8,3.4,7.8,4.3,7.6c0,0,0,0,0,0C4.3,7.4,4.4,7.3,4.5,7.2z"/>
	<path class="st0" d="M5,7C5,7,5,7,5,7c0.2-0.6,0.4-1.1,0.6-1.7c0-0.1,0-0.2-0.1-0.2C5.1,4.9,4.6,4.6,4.2,4.4c0,0-0.1,0-0.1-0.1
		C4,4.3,4,4.4,4,4.4C3.8,4.6,3.6,4.7,3.5,4.9C3.4,5,3.4,5.1,3.5,5.2C3.9,5.8,4.2,6.4,4.6,7c0,0,0,0,0,0.1C4.7,7,4.8,7,5,7
		C4.9,7,4.9,7,5,7z"/>
	<path class="st0" d="M4.4,7.8C4.4,7.8,4.3,7.8,4.4,7.8C3.4,8,2.4,8.2,1.5,8.3c-0.1,0-0.2,0.1-0.2,0.2c0,0.1,0.1,0.1,0.2,0.2
		c1.2,0.7,2.4,1.4,3.5,2c0.5,0.3,1,0.6,1.5,0.9c0-0.1,0.1-0.1,0.1-0.1c0,0,0,0,0,0c-0.4-0.9-0.9-1.8-1.3-2.8C5.2,8.5,5.1,8.3,5,8.1
		c0,0-0.1,0-0.1,0C4.7,8.1,4.5,8,4.4,7.8z"/>
	<path class="st0" d="M6.9,5.9C6.7,5.7,6.4,5.6,6.1,5.4C6,5.3,5.9,5.4,5.8,5.5C5.7,6,5.5,6.5,5.3,7.1c0,0,0,0.1,0,0.1
		c0.1,0.1,0.2,0.2,0.2,0.4c0,0.2-0.1,0.3-0.2,0.4c0,0.1,0,0.1,0,0.2c0.2,0.3,0.3,0.7,0.5,1c0.4,0.8,0.7,1.5,1.1,2.3c0,0,0,0,0.1,0
		c0-1.5,0-3,0-4.6C6.9,6.5,7,6.2,6.9,5.9z"/>
	<path class="st0" d="M19.3,7.2c0-0.2-0.1-0.4-0.2-0.6c-0.4,0.4-0.8,0.5-1.2,0.3c-0.4-0.2-0.5-0.6-0.4-1c0.1-0.4,0.5-0.6,1.1-0.6
		c-0.1-0.2-0.2-0.5-0.2-0.7c0-0.1-0.1-0.1-0.2-0.1c-0.3,0.2-0.7,0.4-1,0.6c-0.7,0.4-1.4,0.8-2,1.1c-0.3,0.2-0.3,0.4-0.1,0.6
		c0.8,0.7,1.7,1.4,2.5,2.1c0.1,0.1,0.2,0.1,0.4,0c0.3-0.3,0.6-0.6,1-0.9C19,8,19.1,7.9,19.2,7.8c0-0.1-0.1-0.2-0.1-0.2
		C19.1,7.4,19.2,7.3,19.3,7.2z"/>
	<path class="st0" d="M22.1,5.2c-0.3-0.2-0.7-0.4-1-0.6c-0.1-0.1-0.2-0.1-0.2,0.1c-0.3,0.8-0.6,1.6-0.9,2.4c0,0,0,0.1,0,0.1
		c0.1,0.1,0.2,0.2,0.2,0.4c0,0.1,0,0.2-0.1,0.3c0,0.1,0.2,0.1,0.2,0.2c0.1,0.1,0.2,0.1,0.3,0c0.7-0.8,1.2-1.6,1.6-2.6
		C22.3,5.3,22.3,5.2,22.1,5.2z"/>
	<path class="st0" d="M19.7,7c0,0,0-0.1,0.1-0.1c0.3-0.8,0.6-1.6,0.9-2.4c0-0.1,0-0.1,0.1-0.2c0-0.1,0-0.1-0.1-0.1
		C20.3,4.1,20,4,19.7,3.8c-0.1,0-0.1,0-0.2,0C19.3,4,19,4.1,18.7,4.3c-0.1,0.1-0.1,0.1-0.1,0.2c0.3,0.8,0.6,1.6,0.9,2.4
		c0,0,0,0.1,0,0.2C19.6,7,19.6,7,19.7,7C19.7,7,19.7,7,19.7,7z"/>
	<path class="st0" d="M19.3,8C19.3,8,19.3,8,19.3,8c-0.5,0.4-0.9,0.8-1.4,1.2c-0.1,0.1-0.1,0.1,0,0.2c0.3,0.4,0.7,0.9,1,1.4
		c0.1-0.4,0.1-0.7,0-1c0-0.1,0-0.2,0.1-0.3c0.3-0.3,0.7-0.6,1-0.9C20.4,8.3,20.4,8.3,20,8c0,0,0,0-0.1,0c-0.1,0.1-0.2,0.1-0.3,0.1
		C19.5,8.1,19.4,8,19.3,8z"/>
	<path class="st0" d="M10.2,17.1c-0.2-0.3-0.4-0.5-0.5-0.8c-0.1-0.2-0.2-0.1-0.3,0c-0.5,0.7-1,1.4-1.5,2.1c-0.1,0.2-0.3,0.4-0.4,0.6
		c0,0,0,0.1,0.1,0.1c0.6-0.1,1.2-0.2,1.8-0.4c0.1,0,0.1-0.1,0.2-0.2c0.2-0.4,0.5-0.8,0.7-1.2C10.3,17.3,10.3,17.2,10.2,17.1z"/>
	<path class="st0" d="M6.6,18.9C6.6,18.9,6.6,18.8,6.6,18.9c-0.3-0.4-0.5-0.8-0.7-1.1c-0.1-0.1-0.2-0.1-0.3,0
		c-0.5,0.4-0.9,0.8-1.4,1.2C4.1,19,4,19.1,3.9,19.2c0.4,0,0.8,0.1,1.1,0.3c0.1,0.1,0.2,0,0.3,0c0.4-0.1,0.7-0.1,1.1-0.2
		c0,0,0.1,0,0.1,0c0,0,0,0,0,0C6.5,19.1,6.5,19,6.6,18.9z"/>
	<path class="st0" d="M6.9,19.8c-0.2,0.3-0.4,0.5-0.6,0.7c-0.1,0.1-0.3,0.2-0.3,0.4c0.1,0.3,0.1,0.5,0.1,0.8
		c0.3-0.1,0.6-0.2,0.9-0.3c0.1,0,0.1-0.1,0.1-0.2c0-0.3,0-0.5,0.1-0.7c0.2-0.3,0.1-0.5-0.1-0.8c0,0,0,0,0,0c-0.1,0-0.1,0-0.2,0
		C7,19.8,6.9,19.8,6.9,19.8z"/>
	<path class="st0" d="M6.6,19.7c-0.2,0.1-0.3,0.2-0.5,0.3c-0.4,0.3-0.4,0.3-0.2,0.7c0,0,0,0,0,0C6.2,20.4,6.5,20,6.6,19.7
		C6.7,19.7,6.6,19.7,6.6,19.7z"/>
	<path class="st0" d="M7.9,19.6c0.2-0.2,0.4-0.3,0.7-0.5c-0.3,0.1-0.7,0.1-1,0.2c0,0.1,0,0.1,0,0.2C7.6,19.6,7.9,19.7,7.9,19.6z"/>
	<path class="st0" d="M7.3,19.7c0.1,0.1,0.1,0.1,0.1,0.2c0,0.1,0.1,0.1,0.1,0c0-0.1,0.1-0.1,0-0.2C7.6,19.8,7.5,19.7,7.3,19.7
		C7.4,19.7,7.4,19.7,7.3,19.7z"/>
	<path class="st0" d="M7.4,18.7c0.6-1,1.1-1.9,1.7-2.9c0.1-0.1,0.1-0.2,0-0.3c-0.6-0.9-1.2-1.8-1.8-2.8c0,0,0-0.1-0.1-0.1
		c0,0-0.1,0-0.1,0c0,0.1,0,0.1,0,0.2c0,1,0,1.9,0,2.9c0,1,0,2,0,3c0,0,0,0.1,0,0.1c0.1,0,0.2,0.1,0.3,0.1
		C7.4,18.8,7.4,18.8,7.4,18.7z"/>
	<path class="st0" d="M6.9,18.6c0-1,0-1.9,0-2.9c0-0.8,0-1.7,0-2.5c0-0.2,0-0.4-0.1-0.6c-0.2,0-0.3-0.2-0.4-0.3c-0.1,0-0.1,0-0.2,0
		c-0.9,0.2-1.9,0.4-2.8,0.6c0,0-0.1,0-0.1,0c0,0,0,0,0,0.1c0,0.1,0,0.3-0.1,0.3c0,0,0,0,0,0c1.1,1.8,2.3,3.6,3.5,5.4
		c0,0,0,0.1,0.1,0.1c0,0,0.1,0,0.2-0.1C6.9,18.7,6.9,18.6,6.9,18.6z"/>
	<path class="st0" d="M11.3,17.9C11.3,17.9,11.3,17.9,11.3,17.9c0.2-0.6,0.4-1.1,0.6-1.7c0-0.1,0.1-0.1,0-0.2
		c-0.1-0.1-0.1,0.1-0.2,0.1c-0.3,0.3-0.5,0.7-0.8,1c-0.3,0.4-0.3,0.5,0,0.8c0,0,0,0,0,0C11.1,18,11.1,17.9,11.3,17.9
		C11.3,17.9,11.3,17.9,11.3,17.9z"/>
	<path class="st0" d="M11.8,18.1c0.3-0.5,0.6-0.9,0.9-1.4c0.1-0.1,0-0.2-0.1-0.3c-0.3-0.2-0.3-0.2-0.5,0.2c0,0,0,0,0,0
		c-0.2,0.4-0.3,0.9-0.5,1.3c0,0,0,0.1,0,0.1c0,0,0.1,0.1,0.1,0.1C11.7,18.2,11.8,18.1,11.8,18.1z"/>
	<path class="st0" d="M10.8,18.1c-0.1-0.1-0.2-0.3-0.2-0.4c0-0.1-0.1,0-0.1,0c-0.2,0.3-0.4,0.6-0.7,0.9c0.3-0.1,0.6-0.1,0.9-0.2
		c0,0,0,0,0.1,0c0,0,0,0,0,0C10.7,18.3,10.7,18.2,10.8,18.1z"/>
	<path class="st0" d="M10.8,18.7C10.8,18.7,10.8,18.7,10.8,18.7c-0.4,0.1-0.7,0.1-1.1,0.2c0.4,0.1,0.8,0.1,1.1,0.3
		c0.2,0.1,0.3,0.1,0.4-0.1c0,0,0.1-0.1,0.1-0.1C11,19,10.8,18.9,10.8,18.7z"/>
	<path class="st0" d="M13.4,1.7c0,0,0,0.1,0,0.1c0,1.3,0,2.5,0,3.8c0,0.2-0.1,0.5,0,0.6C13.6,6.3,13.8,6.1,14,6
		c0.2-0.1,0.3-0.2,0.4-0.4c0.4-1,1-1.9,1.7-2.8c0.3-0.3,0.6-0.6,0.9-1c0,0-0.1,0-0.1,0c-1-0.2-1.9-0.4-2.9-0.6c-0.1,0-0.1,0-0.2,0
		C13.8,1.5,13.6,1.6,13.4,1.7z"/>
	<path class="st0" d="M12.8,1.2C12.8,1.2,12.8,1.1,12.8,1.2C12.7,1.1,12.6,1,12.5,1C12.4,1,12.2,1,12,0.9C11.3,0.8,10.6,0.7,9.9,1
		c0.7,0.6,1.4,1.2,2.1,1.8c0.1,0.1,0.1,0,0.2,0c0.2-0.4,0.5-0.8,0.8-1.2C12.8,1.5,12.8,1.3,12.8,1.2z"/>
	<path class="st0" d="M17.4,1.4c-0.8-0.3-1.7-0.5-2.5-0.7c-0.4-0.1-0.7-0.1-1,0.2c0,0-0.1,0.1-0.1,0.1c0,0,0,0.1,0,0.1
		c0,0,0.1,0,0.1,0c1,0.2,2,0.4,3,0.6c0.1,0,0.2,0,0.2,0c0.1-0.1,0.2-0.1,0.3-0.2C17.5,1.4,17.5,1.4,17.4,1.4z"/>
	<path class="st0" d="M13.7,0.8c0.1,0,0.2-0.1,0.3-0.2c-0.4,0-0.8,0-1.3,0c0.1,0.1,0.2,0.2,0.3,0.2c0.1-0.1,0.2-0.1,0.3-0.1
		C13.4,0.6,13.6,0.7,13.7,0.8z"/>
	<path class="st0" d="M13,1.8c-0.8,1.3-1.6,2.5-2.5,3.8c-0.3,0.5-0.7,1-1,1.6c0,0,0,0,0,0c0.1,0.1,0.1,0.2,0.1,0.4c0,0,0,0,0,0
		c0,0,0,0,0,0c0.4,0.1,0.7,0.1,1.1,0.2c0.1,0,0.2,0,0.3-0.1c0.6-0.5,1.2-0.9,1.9-1.3c0.1-0.1,0.2-0.2,0.2-0.3c0-0.7,0-1.4,0-2.1
		c0-0.7,0-1.4,0-2.2c0,0,0-0.1,0-0.1C13.2,1.7,13.1,1.7,13,1.8C13,1.7,13,1.7,13,1.8z"/>
	<path class="st0" d="M21.2,1.9c0-0.2,0.1-0.3,0.2-0.4c0,0,0,0,0,0c-0.1-0.3-0.3-0.6-0.4-0.8c0,0,0-0.1-0.1-0.1c0,0-0.1,0-0.1,0
		c-0.3,0.1-0.6,0.3-0.9,0.4c-0.1,0.1-0.2,0.1-0.2,0.3c0,0.5,0,1,0,1.5c0,0.3-0.1,0.7,0,0.9c0.2,0.2,0.5,0.3,0.8,0.5
		c0.1,0.1,0.2,0.1,0.2-0.1c0.2-0.5,0.4-1,0.6-1.6c0,0,0-0.1,0-0.1C21.3,2.2,21.2,2.1,21.2,1.9z"/>
	<path class="st0" d="M21.7,2.5C21.7,2.5,21.7,2.5,21.7,2.5c-0.2,0.6-0.4,1.2-0.6,1.7c0,0.1,0,0.2,0.1,0.2c0.4,0.2,0.7,0.4,1.1,0.6
		c0.1,0,0.1,0.1,0.2,0c0.1-0.4,0.3-0.8,0.4-1.2c0-0.1,0-0.1,0-0.1c-0.2-0.4-0.5-0.7-0.7-1.1c0,0,0-0.1-0.1-0.1
		C21.9,2.4,21.8,2.5,21.7,2.5C21.7,2.5,21.7,2.5,21.7,2.5z"/>
	<path class="st0" d="M22.2,1.7c0,0,0.1,0,0.1,0c0.1,0,0.2,0,0.3-0.1C23,1.6,23,1.6,23,1.2c0-0.3-0.1-0.7-0.1-1c0-0.1,0-0.2-0.1-0.2
		c-0.5,0.1-1,0.2-1.5,0.3c-0.1,0-0.1,0.1-0.1,0.2c0.2,0.3,0.2,0.6,0.4,0.9c0,0,0,0,0.1,0C22,1.4,22.1,1.5,22.2,1.7z"/>
	<path class="st0" d="M22.5,1.9c0,0-0.1,0-0.1,0c0,0,0,0-0.1,0c0,0.1-0.1,0.2-0.1,0.3c0,0,0,0,0,0c0.2,0.4,0.5,0.7,0.7,1.1
		C23,3,23,2.7,23,2.4C23.1,1.8,23,1.8,22.5,1.9z"/>
</g>
</svg>
