<?xml version="1.0" encoding="utf-8"?>
<!-- Generator: Adobe Illustrator 24.0.0, SVG Export Plug-In . SVG Version: 6.00 Build 0)  -->
<svg version="1.1" id="Layer_1" xmlns="http://www.w3.org/2000/svg" xmlns:xlink="http://www.w3.org/1999/xlink" x="0px" y="0px"
	 viewBox="0 0 26 26" style="enable-background:new 0 0 26 26;" xml:space="preserve">
<style type="text/css">
	.st0{fill:#343434;}
	.st1{fill:#8C8C8C;}
	.st2{fill:#141414;}
	.st3{fill:#393939;}
	.st4{fill:#3C3C3B;}
</style>
<path class="st0" d="M13,0C13,0,13,0,13,0c0.1,0.1,0.2,0.2,0.2,0.3c0.9,1.5,1.8,3,2.8,4.6c0.7,1.2,1.5,2.5,2.2,3.7
	c0.8,1.3,1.6,2.7,2.4,4c0.1,0.2,0.2,0.4,0.4,0.6c0,0.1-0.1,0-0.1,0c-0.2-0.1-0.3-0.2-0.5-0.2c-0.6-0.3-1.3-0.6-1.9-0.9
	c-0.6-0.3-1.1-0.5-1.7-0.8c-0.6-0.3-1.2-0.6-1.8-0.8c-0.5-0.2-1-0.4-1.5-0.7c-0.1-0.1-0.3-0.1-0.4-0.2c0,0-0.1,0-0.1-0.1
	c0,0,0-0.1,0-0.1c0-3.1,0-6.2,0-9.3C13,0.1,13,0.1,13,0z"/>
<path class="st1" d="M13,0C13,0,13,0,13,0c0,0.1,0,0.1,0,0.2c0,3.1,0,6.2,0,9.3c0,0,0,0.1,0,0.1c0,0,0,0,0,0c0,0,0,0.1-0.1,0.1
	c-0.9,0.4-1.7,0.8-2.6,1.2c-0.9,0.4-1.9,0.9-2.8,1.3c-0.8,0.3-1.5,0.7-2.3,1c-0.1,0-0.1,0.1-0.2,0.1c0,0,0,0,0,0c0,0,0-0.1,0.1-0.1
	c0.8-1.3,1.6-2.7,2.4-4C8.7,7.1,10,5,11.2,2.9C11.8,2,12.4,1,13,0z"/>
<path class="st2" d="M13,9.6c0.1,0,0.2,0.1,0.3,0.1c0.6,0.3,1.2,0.6,1.8,0.8c0.6,0.3,1.2,0.6,1.8,0.8c0.6,0.3,1.1,0.5,1.7,0.8
	c0.6,0.3,1.1,0.5,1.7,0.8c0.2,0.1,0.4,0.2,0.6,0.3c0,0,0.1,0,0.1,0c0,0,0,0.1-0.1,0.1c-0.1,0.1-0.3,0.2-0.4,0.2
	c-0.3,0.2-0.7,0.4-1,0.6c-0.7,0.4-1.5,0.9-2.2,1.3c-0.6,0.4-1.2,0.7-1.8,1.1c-0.8,0.5-1.5,0.9-2.3,1.4c0,0-0.1,0-0.1,0.1
	c0-0.1,0-0.1,0-0.2c0-2,0-4.1,0-6.1c0-0.6,0-1.3,0-1.9C13,9.7,13,9.7,13,9.6L13,9.6z"/>
<path class="st3" d="M13,9.6c0,0,0,0.1,0,0.1c0,2.7,0,5.4,0,8.1c0,0,0,0.1,0,0.1c-0.2-0.1-0.3-0.2-0.5-0.3c-0.9-0.5-1.9-1.1-2.8-1.6
	c-1.2-0.7-2.3-1.4-3.5-2c-0.4-0.2-0.8-0.5-1.2-0.7c0,0-0.1,0-0.1-0.1c0,0,0.1,0,0.1,0c2.6-1.2,5.2-2.4,7.8-3.5
	C12.9,9.6,13,9.6,13,9.6z"/>
<path class="st4" d="M13,19.5c0,0,0.1,0,0.1,0c0.6-0.4,1.2-0.7,1.8-1.1c0.8-0.5,1.6-0.9,2.3-1.4c1.1-0.7,2.3-1.3,3.4-2
	c0.1,0,0.1-0.1,0.2-0.1c0,0,0,0,0.1,0c0,0,0,0.1,0,0.1c-0.4,0.6-0.8,1.2-1.2,1.8c-0.9,1.3-1.9,2.7-2.8,4c-1.1,1.6-2.2,3.2-3.4,4.7
	c-0.1,0.2-0.3,0.4-0.4,0.6c0,0,0,0.1-0.1,0.1c0-0.1,0-0.1,0-0.2C13,23.7,13,21.6,13,19.5C13,19.5,12.9,19.5,13,19.5z"/>
<path class="st1" d="M13,19.5C13,19.5,13,19.5,13,19.5c0,0.1,0,0.1,0,0.1c0,2.1,0,4.2,0,6.2c0,0.1,0,0.1,0,0.2c0,0,0,0-0.1-0.1
	c-2.5-3.5-4.9-7-7.4-10.4c-0.2-0.2-0.3-0.4-0.5-0.6c0,0,0,0,0-0.1c0,0,0.1,0,0.1,0.1C6.1,15.4,7,16,8,16.5c1.6,1,3.3,1.9,4.9,2.9
	C12.9,19.4,12.9,19.4,13,19.5z"/>
</svg>
